<svg width="33" height="34" viewBox="0 0 33 34" fill="none" xmlns="http://www.w3.org/2000/svg">
<path d="M29.2238 10.1287C29.2238 9.93278 29.2238 9.79335 29.2238 9.65298C29.2238 6.79742 29.2238 3.94187 29.2238 1.08632C29.2238 0.968556 29.2275 0.850792 29.221 0.733969C29.2005 0.368429 28.9981 0.113116 28.6445 0.0339778C28.4999 0.00194592 28.3451 0.00194592 28.1949 0.00194592C20.398 6.16868e-05 12.6021 6.16867e-05 4.80614 6.16867e-05C4.68954 6.16867e-05 4.572 -0.005591 4.45725 0.00948284C4.0412 0.0622413 3.79119 0.339223 3.77253 0.763175C3.76694 0.880939 3.77067 0.997762 3.77067 1.11553C3.77067 5.09973 3.77067 9.083 3.77067 13.0672V13.5222C3.62514 13.5298 3.50294 13.5383 3.3798 13.543C2.93856 13.5609 2.49265 13.5392 2.05793 13.6014C0.891856 13.77 0.0298921 14.7743 0.00657052 15.9604C-0.00555668 16.5709 0.00190451 17.1824 0.00190451 17.7938C0.00190451 22.283 -0.000892373 26.7722 0.00657052 31.2613C0.00657052 31.5977 0.0317567 31.9481 0.127841 32.2666C0.43382 33.2784 1.3303 33.9398 2.40123 33.9925C2.5169 33.9982 2.63351 33.9972 2.75012 33.9972C11.9192 33.9972 21.0883 33.9963 30.2574 34.0001C30.9039 34.0001 31.5075 33.8842 32.0271 33.4734C32.64 32.9892 32.9702 32.357 32.9916 31.5656C32.9935 31.4837 32.9944 31.4008 32.9944 31.3188C32.9954 25.1385 32.9926 18.9573 33 12.7761C33 12.0883 32.8377 11.475 32.3778 10.9597C31.9207 10.4472 31.3545 10.1561 30.6651 10.1353C30.3162 10.125 29.9673 10.1297 29.6184 10.1287C29.5037 10.1287 29.3899 10.1287 29.2238 10.1287ZM16.5098 32.504C11.9248 32.504 7.33886 32.504 2.75385 32.504C2.64937 32.504 2.54395 32.5068 2.43947 32.503C1.91241 32.4804 1.51967 32.1017 1.47863 31.5732C1.46837 31.4441 1.47116 31.315 1.47116 31.186C1.47116 26.238 1.47116 21.29 1.47116 16.342C1.47116 16.2129 1.4693 16.0829 1.48049 15.9548C1.5234 15.4583 1.89188 15.0852 2.38537 15.0419C2.51224 15.0306 2.64097 15.0372 2.76971 15.0372C7.93683 15.0372 13.104 15.0334 18.2711 15.0419C18.8812 15.0419 19.4045 14.8629 19.8849 14.4898C21.01 13.6165 22.1509 12.762 23.2768 11.8896C23.5399 11.6861 23.8104 11.5909 24.1434 11.5928C26.1799 11.6022 28.2163 11.5975 30.2537 11.5975C30.347 11.5975 30.4403 11.5956 30.5326 11.6022C31.2089 11.6503 31.5457 12.1392 31.5243 12.6546C31.5205 12.7488 31.5252 12.843 31.5252 12.9362C31.5252 19.0242 31.5252 25.1131 31.5252 31.201C31.5252 31.3301 31.5252 31.4601 31.5149 31.5882C31.4804 32.0178 31.2304 32.3401 30.8171 32.4569C30.6642 32.5002 30.4962 32.5049 30.3358 32.5049C25.7274 32.5077 21.1182 32.5068 16.5098 32.5068V32.504ZM27.7378 10.1287H27.3226C26.2526 10.1287 25.1817 10.1448 24.1117 10.1231C23.4764 10.1099 22.9354 10.2964 22.4326 10.6865C21.2889 11.5739 20.1265 12.436 18.9773 13.315C18.773 13.4714 18.5631 13.5477 18.3037 13.5477C14.0695 13.543 9.83427 13.5439 5.60001 13.543C5.48807 13.543 5.37706 13.5298 5.27351 13.5232C5.19422 12.9221 5.22593 1.76935 5.30243 1.52158H27.7378V10.1287Z" fill="white"/>
<path d="M16.4977 5.87021C19.1732 5.87021 21.8486 5.87021 24.5241 5.87021C24.6407 5.87021 24.7573 5.87681 24.8729 5.86362C25.2125 5.82688 25.4793 5.55649 25.5166 5.22298C25.5558 4.86498 25.3534 4.53712 25.0101 4.43726C24.8785 4.39863 24.7349 4.38638 24.5977 4.38638C19.2002 4.38356 13.8027 4.38356 8.40606 4.38638C8.26799 4.38638 8.12527 4.39863 7.9928 4.43631C7.64857 4.53618 7.44428 4.86121 7.48346 5.22015C7.51984 5.55555 7.78384 5.82499 8.12433 5.86362C8.23908 5.87681 8.35662 5.87021 8.47322 5.87021C11.1487 5.87021 13.8241 5.87021 16.4996 5.87021H16.4977Z" fill="white"/>
<path d="M13.1114 10.2463C14.6469 10.2463 16.1815 10.2463 17.717 10.2463C17.8336 10.2463 17.9502 10.251 18.0658 10.2388C18.4157 10.2021 18.6862 9.91848 18.7189 9.56519C18.7496 9.22697 18.5136 8.88781 18.1713 8.8049C18.0369 8.77287 17.8951 8.76439 17.7571 8.76439C14.6516 8.76251 11.5461 8.76251 8.44151 8.76439C8.30344 8.76439 8.16072 8.77287 8.02639 8.8049C7.67563 8.88875 7.45827 9.19965 7.48066 9.56048C7.50305 9.91377 7.77078 10.2002 8.12247 10.2388C8.23721 10.251 8.35475 10.2463 8.47136 10.2463C10.018 10.2463 11.5647 10.2463 13.1114 10.2463Z" fill="white"/>
</svg>
