<svg width="80" height="76" viewBox="0 0 80 76" fill="none" xmlns="http://www.w3.org/2000/svg">
<path d="M78.8628 65.66L54.5846 25.0379C53.4977 22.8222 51.3235 21.7143 48.7872 21.7143C46.2505 21.7143 44.4388 22.8222 42.9894 25.0379L29.2198 47.9339L26.3209 42.7637C25.2339 40.5482 23.0597 39.4404 20.5232 39.4404C18.3491 39.4404 16.175 40.5482 14.7255 42.7637L0.955996 65.66C-0.131082 67.8756 -0.493437 70.4607 0.955996 72.6763C2.40541 74.5227 4.57955 76 7.11606 76H73.4271C75.9639 76 78.138 74.5227 79.225 72.6763C80.3122 70.4607 80.3122 67.8756 78.8628 65.66Z" fill="#E4E4EA"/>
<path d="M18.1818 28.9524C26.215 28.9524 32.7272 22.4712 32.7272 14.4762C32.7272 6.48121 26.215 0 18.1818 0C10.1486 0 3.63636 6.48121 3.63636 14.4762C3.63636 22.4712 10.1486 28.9524 18.1818 28.9524Z" fill="#E4E4EA"/>
</svg>
