<svg xmlns="http://www.w3.org/2000/svg" width="11" height="13" viewBox="0 0 11 13" fill="none">
  <g clip-path="url(#clip0_1129_3516)">
    <path d="M5.36259 0C5.44833 0 5.53407 0 5.61982 0C5.89575 0.113308 6.02047 0.328086 6.00176 0.649408C5.99241 0.799922 6.00176 0.952127 6.00176 1.11279C6.05477 1.12463 6.09998 1.13308 6.14363 1.14323C7.84445 1.50006 9.00275 3.11006 8.99496 4.86549C8.9934 5.34409 8.99028 5.821 8.99652 6.2996C8.99964 6.50592 9.01211 6.71393 9.03861 6.91856C9.11968 7.56121 9.35196 8.13789 9.72767 8.64017C9.86798 8.8262 10.0301 8.99362 10.1907 9.15936C10.4791 9.457 10.5711 9.86627 10.4261 10.2468C10.2811 10.6256 9.96619 10.8421 9.55307 10.8421C6.84828 10.8421 4.14193 10.8421 1.43714 10.8421C1.35919 10.8421 1.28124 10.8336 1.20485 10.8184C0.748077 10.7271 0.433167 10.2316 0.509556 9.73774C0.543853 9.51112 0.643627 9.32848 0.793286 9.16951C0.956977 8.99532 1.12846 8.82451 1.27033 8.63002C1.7349 7.99922 1.97653 7.27371 1.98901 6.46533C1.9968 5.9546 1.99212 5.44217 1.99212 4.92975C1.99212 4.671 2.01395 4.41564 2.0576 4.16027C2.31951 2.62976 3.47781 1.3969 4.89646 1.13816C4.92608 1.13308 4.95258 1.11955 4.9822 1.10941C4.98376 1.06713 4.98688 1.0333 4.98688 0.999479C4.98688 0.850657 4.98376 0.703525 4.98688 0.554703C4.99312 0.312866 5.09601 0.136985 5.30179 0.0355145C5.32206 0.0253675 5.34232 0.0135293 5.36259 0.00169117V0Z" fill="white"/>
    <path d="M10.9857 5.09041C10.9857 5.20034 10.9951 5.31026 10.9842 5.4185C10.9577 5.69247 10.7472 5.89202 10.4916 5.89372C10.2343 5.89372 10.0223 5.70092 9.98957 5.42864C9.98022 5.35762 9.9771 5.2849 9.97398 5.21387C9.93813 3.74255 9.44394 2.47756 8.5148 1.41043C8.48518 1.37661 8.45556 1.34448 8.4275 1.30896C8.25134 1.08573 8.25913 0.766098 8.44776 0.561467C8.63952 0.351763 8.94351 0.334851 9.14306 0.541173C9.2974 0.701834 9.44238 0.874333 9.57801 1.0536C10.2795 1.97697 10.7207 3.03057 10.9062 4.20931C10.9514 4.50019 10.9702 4.79615 11.0013 5.08872C10.9967 5.08872 10.992 5.08872 10.9873 5.09041H10.9857Z" fill="white"/>
    <path d="M-0.000222658 5.16821C0.0449871 3.72733 0.451875 2.42344 1.2563 1.27514C1.43402 1.01977 1.63356 0.777937 1.84091 0.55132C2.09034 0.280734 2.51282 0.380513 2.64845 0.728893C2.73419 0.948745 2.69366 1.14999 2.54867 1.32757C2.39901 1.5119 2.24156 1.68778 2.10281 1.88058C1.56341 2.63146 1.21888 3.47704 1.08481 4.41902C1.04428 4.70144 1.03648 4.99063 1.0131 5.27644C1.00686 5.35254 1.0053 5.42865 0.988156 5.50137C0.92268 5.7635 0.688836 5.92247 0.430049 5.89033C0.197765 5.86158 0.00757213 5.62989 -0.000222658 5.36776C-0.00178161 5.30012 -0.000222658 5.23247 -0.000222658 5.16482V5.16821Z" fill="white"/>
    <path d="M3.66956 11.3714H7.32376C7.22398 12.1274 6.50063 13.049 5.40624 12.9983C4.42566 12.9526 3.75375 12.0885 3.66956 11.3714Z" fill="white"/>
  </g>
  <defs>
    <clipPath id="clip0_1129_3516">
      <rect width="11" height="13" fill="white"/>
    </clipPath>
  </defs>
</svg>
